# xmcd
# 
# Track frame offsets:
#     150
#     18430
#     36092
#     48692
#     64802
#     81952
#     95272
#     110557
#     128165
#     146582
#     166150
#     178777
#     195372
#     212320
#     229142
#     250530
#     265290
# 
# Disc length: 3887
# 
# Revision: 7
# Processed by: cddbd v1.5.2PL0 Copyright (c) Steve Scherf et al.
# Submitted via: fre:ac v1.0.27
# 
DISCID=e40f2d11
DTITLE=Trisha Yearwood - Songbook
DYEAR=1997
DGENRE=Country
TTITLE0=How Do I Live
TTITLE1=The Song Remembers When
TTITLE2=The Wrong Side Of Memphis
TTITLE3=In Another's Eyes (Duet with Garth Brooks)
TTITLE4=The Woman Before Me
TTITLE5=Perfect Love
TTITLE6=Thinkin' About You
TTITLE7=Down On My Knees
TTITLE8=She's In Love With The Boy
TTITLE9=Walkaway Joe
TTITLE10=XXX's And OOO's (An American Girl)
TTITLE11=Like We Never Had A Broken Heart
TTITLE12=A Lover Is Forever
TTITLE13=Believe Me Baby I Lied
TTITLE14=On A Bus To St. Cloud
TTITLE15=You Can Sleep While I Drive
TTITLE16=The Flame
EXTD=YEAR: 1997
EXTT0=
EXTT1=
EXTT2=
EXTT3=
EXTT4=
EXTT5=
EXTT6=
EXTT7=
EXTT8=
EXTT9=
EXTT10=
EXTT11=
EXTT12=
EXTT13=
EXTT14=
EXTT15=
EXTT16=
PLAYORDER=
